NUKED NUKED NUKED NUKED 

The Bounty Hunter

source:

The.Bounty.Hunter.DVDRIP-ARROW 
http://www.imdb.com/title/tt1038919/

ID                               : 1
Format                           : AVC
Format/Info                      : Advanced Video Codec
Format profile                   : Baseline@L2.0
Format settings, CABAC           : No
Format settings, ReFrames        : 3 frames
Codec ID                         : avc1
Codec ID/Info                    : Advanced Video Coding
Duration                         : 1h 50mn
Bit rate mode                    : Variable
Bit rate                         : 400 Kbps
Width                            : 480 pixels
Height                           : 208 pixels
Display aspect ratio             : 2.35:1
Frame rate mode                  : Variable
Frame rate                       : 23.976 fps
Minimum frame rate               : 23.974 fps
Maximum frame rate               : 23.981 fps
Color space                      : YUV
Chroma subsampling               : 4:2:0
Bit depth                        : 8 bits
Scan type                        : Progressive
Bits/(Pixel*Frame)               : 0.167
Stream size                      : 316 MiB (75%)
Writing library                  : x264 core 79

ID                               : 2
Format                           : AAC
Format/Info                      : Advanced Audio Codec
Format version                   : Version 4
Format profile                   : LC
Format settings, SBR             : No
Codec ID                         : 40
Duration                         : 1h 50mn
Bit rate mode                    : Variable
Bit rate                         : 128 Kbps
Maximum bit rate                 : 232 Kbps
Channel(s)                       : 2 channels
Channel positions                : Front: L R
Sampling rate                    : 48.0 KHz
Stream size                      : 101 MiB (24%)
 
http://img651.imageshack.us/img651/3966/vlcsnap00001c.png 
http://img684.imageshack.us/img684/6605/vlcsnap00002oz.png 
http://img64.imageshack.us/img64/5499/vlcsnap00003ed.png 
http://img692.imageshack.us/img692/7927/vlcsnap00004pz.png 
http://img39.imageshack.us/img39/1071/vlcsnap00005uk.png 
http://img823.imageshack.us/img823/3199/vlcsnap00006f.png 
http://img202.imageshack.us/img202/8580/vlcsnap00007j.png 
http://img96.imageshack.us/img96/2072/vlcsnap00008b.png


PLEASE LET THE TORRENT SEED AND SHARE IT WITH ALL YOU KNOW!

Let me know what I can do to be your trusted source of Handheld videos.


*****sound glitch in the middle of the movie*****
******* SORRY FOR THAT WONT HAPPEN AGAIN ********


-OOO (on.off.on)
